{"glyphs":{"p":{"ha":610,"x_min":0,"x_max":0,"o":""},"A":{"ha":469,"x_min":0,"x_max":412,"o":"m 279 239 m 161 369 l 214 369 l 187 808 l 161 369 m 203 0 l 203 19 q 225 252 236 52 l 157 252 q 176 19 141 52 l 176 0 l 0 0 l 0 19 q 37 37 22 22 q 127 1337 52 52 l 269 1337 q 380 37 369 52 q 412 19 391 22 l 412 0 l 203 0 z "},"C":{"ha":396,"x_min":-3,"x_max":363,"o":"m 14 206 l 14 998 q 176 1340 -3 1343 q 347 1001 363 1340 l 347 854 l 209 773 l 209 1009 q 174 1215 209 1215 q 144 1009 138 1215 l 144 309 q 174 92 138 92 q 209 309 209 92 l 209 510 l 345 412 l 345 203 q 171 -30 342 -11 q 14 206 16 -11 z "},"D":{"ha":429,"x_min":-3,"x_max":369,"o":"m 65 136 l 65 1218 q 5 1302 54 1302 l 0 1337 l 231 1337 q 369 1050 366 1340 l 366 187 q 176 0 358 14 l -3 0 l 0 38 q 65 136 60 49 m 179 396 l 179 117 q 222 293 222 117 l 222 1012 q 179 1213 231 1232 l 179 396 z "},"E":{"ha":477,"x_min":0,"x_max":415,"o":"m 49 1259 q 0 1318 49 1302 l 0 1337 l 415 1337 l 415 892 l 377 892 q 317 1181 358 1104 q 195 1261 277 1259 l 195 800 q 277 1001 269 776 l 309 1001 l 309 445 l 271 445 q 195 681 271 665 l 195 76 q 313 161 260 76 q 377 464 366 247 l 412 464 l 412 3 l 8 3 l 8 30 q 49 100 52 27 l 49 1259 z "},"F":{"ha":472,"x_min":0,"x_max":415,"o":"m 49 1259 q 0 1302 49 1302 l 0 1337 l 415 1337 l 415 892 l 377 892 q 317 1181 358 1104 q 195 1261 277 1259 l 195 800 q 271 1004 269 776 l 309 1001 l 309 445 l 271 445 q 195 681 271 665 l 195 103 q 233 43 195 24 l 236 3 l 8 3 l 5 43 q 49 100 52 27 l 49 1259 z "},"G":{"ha":420,"x_min":0,"x_max":393,"o":"m 16 212 l 16 1004 q 179 1345 0 1348 q 347 1006 353 1345 l 212 879 q 176 1210 212 1210 q 146 1004 141 1210 l 146 304 q 176 87 141 87 q 231 195 212 87 l 231 526 q 174 564 217 562 l 174 602 l 393 602 l 393 570 q 339 524 350 564 l 339 193 q 174 -24 326 -5 q 16 212 19 -5 z "},"H":{"ha":507,"x_min":-3,"x_max":461,"o":"m -3 1321 l -3 1340 l 206 1340 l 206 1321 q 165 1248 165 1297 l 165 703 l 274 703 l 274 1248 q 225 1321 274 1294 l 225 1340 l 461 1340 l 461 1321 q 410 1248 410 1294 l 410 114 q 458 19 410 35 l 458 0 l 228 0 l 228 19 q 271 114 271 35 l 271 553 l 165 553 l 165 114 q 209 19 167 34 l 209 0 l -3 0 l -3 19 q 35 114 35 33 l 35 1248 q -3 1321 35 1297 z "},"I":{"ha":269,"x_min":0,"x_max":212,"o":"m 0 1302 l 0 1340 l 209 1340 l 206 1302 q 168 1248 168 1297 l 168 114 q 212 38 170 34 l 212 0 l 0 0 l 0 38 q 38 114 38 33 l 38 1248 q 0 1302 38 1297 z "},"J":{"ha":453,"x_min":-3,"x_max":407,"o":"m 309 233 l 309 1259 q 407 1308 309 1308 l 407 1345 l 65 1345 l 65 1308 q 179 1253 174 1308 l 179 326 q 149 109 184 109 q 117 326 114 109 l 117 548 q 152 586 117 581 l 152 624 l -3 624 l 0 583 q 46 548 43 583 l 46 212 q 152 -3 41 24 q 309 233 307 16 z "},"K":{"ha":507,"x_min":0,"x_max":450,"o":"m 258 873 l 258 1337 l 450 1337 l 450 1299 q 414 1061 410 1302 q 339 689 418 819 l 339 640 q 412 293 420 556 q 445 38 404 30 l 445 0 l 260 0 l 260 415 q 206 613 263 613 l 206 109 q 239 38 206 41 l 239 0 l 16 3 l 16 43 q 49 111 46 43 l 49 1221 q 0 1294 49 1302 l 0 1337 l 236 1337 l 236 1297 q 206 1221 201 1299 l 206 781 q 258 873 258 773 z "},"L":{"ha":464,"x_min":0,"x_max":391,"o":"m 57 1226 q 3 1299 54 1297 l 3 1340 l 250 1340 l 250 1302 q 195 1226 195 1297 l 196 85 q 355 548 298 92 l 391 548 l 391 0 l 0 0 l 0 38 q 57 103 54 43 l 57 1226 z "},"M":{"ha":502,"x_min":-3,"x_max":442,"o":"m 43 1245 q 0 1305 52 1294 l 0 1340 l 127 1340 l 198 779 l 266 1340 l 431 1340 l 431 1305 q 399 1191 396 1297 l 399 87 q 442 41 404 46 l 442 3 l 260 3 l 260 41 q 298 87 298 43 l 298 852 l 206 296 l 106 852 l 106 92 q 155 35 103 38 l 155 3 l -3 3 l 0 33 q 43 95 46 38 l 43 1245 z "},"N":{"ha":502,"x_min":-3,"x_max":431,"o":"m 43 1245 q 0 1305 52 1294 l 0 1340 l 193 1340 l 298 583 l 298 1256 q 266 1302 298 1297 l 266 1340 l 431 1340 l 431 1305 q 399 1191 396 1297 l 399 3 l 271 3 l 141 854 l 141 92 q 182 35 133 33 l 182 3 l -3 3 l 0 33 q 43 95 46 38 l 43 1245 z "},"O":{"ha":420,"x_min":0,"x_max":353,"o":"m 16 206 l 16 998 q 179 1340 0 1343 q 347 1001 353 1340 l 347 203 q 174 -30 345 -11 q 16 206 19 -11 m 146 326 q 176 109 141 109 q 212 326 212 109 l 212 1025 q 176 1232 212 1232 q 146 1025 141 1232 l 146 326 z "},"P":{"ha":429,"x_min":-3,"x_max":369,"o":"m 65 1202 l 65 119 q 0 35 54 35 l 0 0 l 247 0 l 247 38 q 182 119 190 35 l 182 621 q 369 784 361 632 l 369 1150 q 176 1337 358 1324 l -3 1337 l 0 1299 q 65 1202 60 1289 m 179 977 l 179 1221 q 239 1096 239 1221 l 239 890 q 179 737 239 738 l 179 977 z "},"Q":{"ha":448,"x_min":0,"x_max":393,"o":"m 16 206 l 16 998 q 179 1340 0 1343 q 347 1001 353 1340 l 347 296 q 304 76 342 127 l 393 76 l 393 -30 l 174 -30 q 16 206 19 -11 m 146 326 q 176 109 141 109 q 212 326 212 109 l 212 1025 q 176 1232 212 1232 q 146 1025 141 1232 l 146 326 z "},"R":{"ha":507,"x_min":0,"x_max":445,"o":"m 49 1221 q 0 1294 49 1302 l 0 1337 l 255 1337 q 420 1150 377 1299 l 420 846 q 339 689 415 713 l 339 640 q 412 293 420 556 q 445 38 404 30 l 445 0 l 260 0 l 260 76 l 260 415 q 206 613 263 613 l 206 109 q 239 38 206 41 l 239 0 l 16 3 l 16 43 q 49 111 46 43 l 49 1221 m 271 873 l 271 1112 q 206 1204 263 1210 l 206 781 q 271 873 269 768 z "},"S":{"ha":426,"x_min":0,"x_max":369,"o":"m 0 472 l 146 548 q 161 103 119 125 q 209 125 203 81 q 209 453 233 288 q 176 572 201 537 q 3 925 24 808 l 0 1194 q 163 1335 30 1335 q 320 1145 312 1332 l 328 971 l 193 884 q 193 1188 195 1047 q 161 1257 193 1256 q 130 1194 130 1259 l 133 922 q 320 581 271 700 q 355 239 369 461 q 179 -5 342 -8 q 0 212 22 3 l 0 472 z "},"T":{"ha":464,"x_min":14,"x_max":393,"o":"m 14 1345 l 393 1345 l 393 865 l 347 865 q 271 1210 334 1156 l 271 98 q 331 16 271 33 l 331 -3 l 79 -3 l 79 16 q 138 100 144 33 l 138 1210 q 52 865 71 1158 l 14 865 l 14 1345 z "},"U":{"ha":420,"x_min":0,"x_max":388,"o":"m 60 206 l 60 1242 q 0 1302 62 1299 l 0 1340 l 174 1340 l 174 298 q 205 83 168 84 q 239 296 241 81 l 239 1245 l 239 1340 l 388 1340 l 388 1302 q 334 1240 331 1299 l 334 198 q 201 -27 331 -8 q 60 206 62 -11 z "},"V":{"ha":513,"x_min":0,"x_max":445,"o":"m 263 1294 l 271 1335 l 445 1335 l 445 1294 q 393 1232 388 1297 l 309 5 l 190 5 l 62 1240 q 0 1297 57 1280 l 0 1335 l 239 1335 l 239 1294 q 184 1234 182 1291 l 250 450 l 304 1232 q 263 1294 309 1294 z "},"W":{"ha":502,"x_min":-3,"x_max":442,"o":"m 342 5 l 271 5 l 228 678 l 195 3 l 98 5 l 41 1256 q -3 1302 35 1297 l -3 1340 l 179 1340 l 179 1302 q 141 1256 141 1299 l 152 488 l 236 1340 l 320 486 l 334 1251 q 285 1308 336 1305 l 285 1340 l 442 1340 l 442 1308 q 396 1248 393 1305 l 342 5 z "},"X":{"ha":456,"x_min":0,"x_max":388,"o":"m 195 1316 l 195 1283 q 146 1190 141 1275 q 190 819 152 1104 q 251 1198 244 1120 q 217 1283 258 1275 l 217 1316 l 388 1316 l 388 1280 q 345 1242 345 1278 l 244 656 l 336 73 q 388 41 336 41 l 388 3 l 206 3 l 206 41 q 235 161 252 41 q 184 521 217 282 q 142 163 157 282 q 179 41 127 43 l 179 3 l 0 3 l 0 35 q 46 71 46 38 l 130 662 l 46 1242 q 0 1283 43 1280 l 0 1316 l 195 1316 z "},"Y":{"ha":480,"x_min":-3,"x_max":391,"o":"m 198 1318 l 198 1286 q 163 1122 144 1299 q 209 854 182 944 q 254 1200 247 1123 q 220 1286 260 1278 l 220 1318 l 391 1318 l 391 1283 q 347 1245 347 1280 l 222 515 l 222 114 q 263 41 220 46 l 263 5 l 68 5 l 68 43 q 106 114 106 46 l 106 564 l 57 1072 q 0 1289 76 1259 l -3 1318 l 198 1318 z "},"Z":{"ha":521,"x_min":0,"x_max":456,"o":"m 103 103 l 401 1259 q 456 1299 407 1297 l 456 1337 l 0 1337 l 0 892 l 38 892 q 98 1181 57 1104 q 315 1264 138 1259 l 0 43 l 0 3 l 401 3 l 401 442 l 363 442 q 304 168 347 233 q 103 103 260 103 z "},"s":{"ha":1280,"x_min":0,"x_max":1291,"o":"m 271 385 q 749 304 494 184 q 686 570 1004 423 q 627 922 369 716 q 1199 993 884 1128 l 966 787 q 1202 396 1291 667 q 692 30 1112 125 q 0 179 271 -65 l 271 385 z "},"q":{"ha":1546,"x_min":-76,"x_max":1595,"o":"m 1280 179 l 1535 179 l 1362 0 l 439 0 q 3 453 -76 114 q 521 947 81 792 q 1278 979 960 1101 q 1563 602 1595 857 q 1280 179 1530 347 m 689 222 q 1142 396 966 206 q 1131 722 1318 586 q 640 735 944 857 q 380 410 336 613 q 689 222 423 206 z "},"u":{"ha":846,"x_min":-54,"x_max":1324,"o":"m 233 1020 l 608 1020 l 391 396 q 507 255 369 271 q 732 369 646 239 l 939 1020 l 1324 1020 l 1101 353 q 773 62 993 136 q 366 0 553 -11 q 62 117 179 11 q 54 488 -54 222 l 233 1020 z "},"a":{"ha":1497,"x_min":0,"x_max":1459,"o":"m 1123 1150 l 0 0 l 195 0 l 868 689 l 1074 0 l 1459 0 l 1123 1150 z "},"r":{"ha":1259,"x_min":-5,"x_max":1416,"o":"m 320 998 l 1069 998 q 1386 765 1356 944 q 1275 475 1416 586 q 971 320 1134 363 l 971 277 l 1215 0 l 836 0 l 629 271 l 439 271 l 353 0 l -5 0 l 320 998 m 591 781 l 494 494 l 738 494 q 1020 624 971 505 q 830 781 1069 743 l 591 781 z "},"e":{"ha":1085,"x_min":-5,"x_max":1232,"o":"m 336 1004 l 1232 1004 l 1139 749 l 613 749 l 559 602 l 1036 602 l 814 369 l 477 369 l 434 250 l 966 250 l 884 0 l -5 0 l 336 1004 z "},"B":{"ha":429,"x_min":-3,"x_max":388,"o":"m 65 136 l 65 1218 q 5 1302 54 1302 l 0 1337 l 179 1337 q 353 1047 328 1316 q 274 716 345 792 q 369 187 388 613 q 176 0 358 14 l -3 0 l 0 38 q 65 136 60 49 m 179 396 l 179 117 q 222 293 222 117 l 222 480 q 179 600 220 602 l 179 396 m 179 806 q 225 901 225 806 l 225 1093 q 179 1213 217 1210 l 179 806 z "},"o":{"ha":1432,"x_min":-76,"x_max":1595,"o":"m 1280 179 q 439 0 982 -38 q 3 453 -76 114 q 521 947 81 792 q 1278 979 960 1101 q 1563 602 1595 857 q 1280 179 1530 347 m 689 222 q 1142 396 966 206 q 1131 722 1318 586 q 640 735 944 857 q 380 410 336 613 q 689 222 423 206 z "},"f":{"ha":1270,"x_min":0,"x_max":1221,"o":"m 331 1009 l 0 5 l 380 5 l 510 385 l 830 385 l 1036 624 l 591 624 l 624 743 l 1123 743 l 1221 1009 l 331 1009 z "},"t":{"ha":852,"x_min":11,"x_max":1128,"o":"m 109 1004 l 11 738 l 331 738 l 81 0 l 477 0 l 727 732 l 1047 732 l 1128 1004 l 109 1004 z "}}}
